<mxfile host="Electron" modified="2024-03-21T07:08:59.973Z" agent="Mozilla/5.0 (Windows NT 10.0; Win64; x64) AppleWebKit/537.36 (KHTML, like Gecko) draw.io/21.6.5 Chrome/114.0.5735.243 Electron/25.3.1 Safari/537.36" etag="p_zjzUlpnV9VFvJg6uAx" version="21.6.5" type="device">
  <diagram id="C5RBs43oDa-KdzZeNtuy" name="Page-1">
    <mxGraphModel dx="1446" dy="857" grid="1" gridSize="10" guides="1" tooltips="1" connect="1" arrows="1" fold="1" page="1" pageScale="1" pageWidth="827" pageHeight="1169" math="0" shadow="0">
      <root>
        <mxCell id="WIyWlLk6GJQsqaUBKTNV-0" />
        <mxCell id="WIyWlLk6GJQsqaUBKTNV-1" parent="WIyWlLk6GJQsqaUBKTNV-0" />
        <mxCell id="dEN1wEpHh9dn_TEWNNa1-1" value="" style="edgeStyle=orthogonalEdgeStyle;rounded=0;orthogonalLoop=1;jettySize=auto;html=1;" edge="1" parent="WIyWlLk6GJQsqaUBKTNV-1" source="WIyWlLk6GJQsqaUBKTNV-3" target="dEN1wEpHh9dn_TEWNNa1-0">
          <mxGeometry relative="1" as="geometry" />
        </mxCell>
        <mxCell id="WIyWlLk6GJQsqaUBKTNV-3" value="开始" style="rounded=1;whiteSpace=wrap;html=1;fontSize=12;glass=0;strokeWidth=1;shadow=0;" parent="WIyWlLk6GJQsqaUBKTNV-1" vertex="1">
          <mxGeometry x="340" y="60" width="120" height="40" as="geometry" />
        </mxCell>
        <mxCell id="dEN1wEpHh9dn_TEWNNa1-21" value="" style="edgeStyle=orthogonalEdgeStyle;rounded=0;orthogonalLoop=1;jettySize=auto;html=1;" edge="1" parent="WIyWlLk6GJQsqaUBKTNV-1" source="WIyWlLk6GJQsqaUBKTNV-6" target="dEN1wEpHh9dn_TEWNNa1-20">
          <mxGeometry relative="1" as="geometry" />
        </mxCell>
        <mxCell id="dEN1wEpHh9dn_TEWNNa1-26" value="是" style="edgeLabel;html=1;align=center;verticalAlign=middle;resizable=0;points=[];" vertex="1" connectable="0" parent="dEN1wEpHh9dn_TEWNNa1-21">
          <mxGeometry x="-0.2444" y="2" relative="1" as="geometry">
            <mxPoint as="offset" />
          </mxGeometry>
        </mxCell>
        <mxCell id="dEN1wEpHh9dn_TEWNNa1-23" value="" style="edgeStyle=orthogonalEdgeStyle;rounded=0;orthogonalLoop=1;jettySize=auto;html=1;" edge="1" parent="WIyWlLk6GJQsqaUBKTNV-1" source="WIyWlLk6GJQsqaUBKTNV-6" target="dEN1wEpHh9dn_TEWNNa1-22">
          <mxGeometry relative="1" as="geometry" />
        </mxCell>
        <mxCell id="dEN1wEpHh9dn_TEWNNa1-29" value="否" style="edgeLabel;html=1;align=center;verticalAlign=middle;resizable=0;points=[];" vertex="1" connectable="0" parent="dEN1wEpHh9dn_TEWNNa1-23">
          <mxGeometry x="0.28" y="1" relative="1" as="geometry">
            <mxPoint as="offset" />
          </mxGeometry>
        </mxCell>
        <mxCell id="WIyWlLk6GJQsqaUBKTNV-6" value="*fmt==&#39;-&#39;" style="rhombus;whiteSpace=wrap;html=1;shadow=0;fontFamily=Helvetica;fontSize=12;align=center;strokeWidth=1;spacing=6;spacingTop=-4;" parent="WIyWlLk6GJQsqaUBKTNV-1" vertex="1">
          <mxGeometry x="350" y="490" width="100" height="80" as="geometry" />
        </mxCell>
        <mxCell id="dEN1wEpHh9dn_TEWNNa1-19" value="" style="edgeStyle=orthogonalEdgeStyle;rounded=0;orthogonalLoop=1;jettySize=auto;html=1;" edge="1" parent="WIyWlLk6GJQsqaUBKTNV-1" source="WIyWlLk6GJQsqaUBKTNV-12" target="WIyWlLk6GJQsqaUBKTNV-6">
          <mxGeometry relative="1" as="geometry" />
        </mxCell>
        <mxCell id="WIyWlLk6GJQsqaUBKTNV-12" value="初始化所有参数&lt;br&gt;fmt++" style="rounded=1;whiteSpace=wrap;html=1;fontSize=12;glass=0;strokeWidth=1;shadow=0;" parent="WIyWlLk6GJQsqaUBKTNV-1" vertex="1">
          <mxGeometry x="340" y="420" width="120" height="40" as="geometry" />
        </mxCell>
        <mxCell id="dEN1wEpHh9dn_TEWNNa1-3" value="" style="edgeStyle=orthogonalEdgeStyle;rounded=0;orthogonalLoop=1;jettySize=auto;html=1;" edge="1" parent="WIyWlLk6GJQsqaUBKTNV-1" source="dEN1wEpHh9dn_TEWNNa1-0" target="dEN1wEpHh9dn_TEWNNa1-2">
          <mxGeometry relative="1" as="geometry" />
        </mxCell>
        <mxCell id="dEN1wEpHh9dn_TEWNNa1-0" value="读取fmt指向的字符" style="rounded=1;whiteSpace=wrap;html=1;fontSize=12;glass=0;strokeWidth=1;shadow=0;" vertex="1" parent="WIyWlLk6GJQsqaUBKTNV-1">
          <mxGeometry x="340" y="130" width="120" height="40" as="geometry" />
        </mxCell>
        <mxCell id="dEN1wEpHh9dn_TEWNNa1-7" style="edgeStyle=orthogonalEdgeStyle;rounded=0;orthogonalLoop=1;jettySize=auto;html=1;entryX=0.5;entryY=1;entryDx=0;entryDy=0;" edge="1" parent="WIyWlLk6GJQsqaUBKTNV-1" source="dEN1wEpHh9dn_TEWNNa1-2" target="dEN1wEpHh9dn_TEWNNa1-6">
          <mxGeometry relative="1" as="geometry" />
        </mxCell>
        <mxCell id="dEN1wEpHh9dn_TEWNNa1-8" value="是" style="edgeLabel;html=1;align=center;verticalAlign=middle;resizable=0;points=[];" vertex="1" connectable="0" parent="dEN1wEpHh9dn_TEWNNa1-7">
          <mxGeometry x="-0.3614" y="2" relative="1" as="geometry">
            <mxPoint as="offset" />
          </mxGeometry>
        </mxCell>
        <mxCell id="dEN1wEpHh9dn_TEWNNa1-11" value="" style="edgeStyle=orthogonalEdgeStyle;rounded=0;orthogonalLoop=1;jettySize=auto;html=1;" edge="1" parent="WIyWlLk6GJQsqaUBKTNV-1" source="dEN1wEpHh9dn_TEWNNa1-2" target="dEN1wEpHh9dn_TEWNNa1-10">
          <mxGeometry relative="1" as="geometry" />
        </mxCell>
        <mxCell id="dEN1wEpHh9dn_TEWNNa1-12" value="否" style="edgeLabel;html=1;align=center;verticalAlign=middle;resizable=0;points=[];" vertex="1" connectable="0" parent="dEN1wEpHh9dn_TEWNNa1-11">
          <mxGeometry x="0.24" y="2" relative="1" as="geometry">
            <mxPoint as="offset" />
          </mxGeometry>
        </mxCell>
        <mxCell id="dEN1wEpHh9dn_TEWNNa1-2" value="不是&#39;%&#39;和&#39;\0&#39;" style="rhombus;whiteSpace=wrap;html=1;shadow=0;fontFamily=Helvetica;fontSize=12;align=center;strokeWidth=1;spacing=6;spacingTop=-4;" vertex="1" parent="WIyWlLk6GJQsqaUBKTNV-1">
          <mxGeometry x="350" y="200" width="100" height="80" as="geometry" />
        </mxCell>
        <mxCell id="dEN1wEpHh9dn_TEWNNa1-9" style="edgeStyle=orthogonalEdgeStyle;rounded=0;orthogonalLoop=1;jettySize=auto;html=1;entryX=1;entryY=0.5;entryDx=0;entryDy=0;" edge="1" parent="WIyWlLk6GJQsqaUBKTNV-1" source="dEN1wEpHh9dn_TEWNNa1-6" target="dEN1wEpHh9dn_TEWNNa1-0">
          <mxGeometry relative="1" as="geometry" />
        </mxCell>
        <mxCell id="dEN1wEpHh9dn_TEWNNa1-6" value="输出字符" style="rounded=1;whiteSpace=wrap;html=1;fontSize=12;glass=0;strokeWidth=1;shadow=0;" vertex="1" parent="WIyWlLk6GJQsqaUBKTNV-1">
          <mxGeometry x="510" y="130" width="120" height="40" as="geometry" />
        </mxCell>
        <mxCell id="dEN1wEpHh9dn_TEWNNa1-16" value="" style="edgeStyle=orthogonalEdgeStyle;rounded=0;orthogonalLoop=1;jettySize=auto;html=1;" edge="1" parent="WIyWlLk6GJQsqaUBKTNV-1" source="dEN1wEpHh9dn_TEWNNa1-10" target="dEN1wEpHh9dn_TEWNNa1-15">
          <mxGeometry relative="1" as="geometry" />
        </mxCell>
        <mxCell id="dEN1wEpHh9dn_TEWNNa1-17" value="是" style="edgeLabel;html=1;align=center;verticalAlign=middle;resizable=0;points=[];" vertex="1" connectable="0" parent="dEN1wEpHh9dn_TEWNNa1-16">
          <mxGeometry x="0.0222" y="-1" relative="1" as="geometry">
            <mxPoint as="offset" />
          </mxGeometry>
        </mxCell>
        <mxCell id="dEN1wEpHh9dn_TEWNNa1-18" value="" style="edgeStyle=orthogonalEdgeStyle;rounded=0;orthogonalLoop=1;jettySize=auto;html=1;" edge="1" parent="WIyWlLk6GJQsqaUBKTNV-1" source="dEN1wEpHh9dn_TEWNNa1-10" target="WIyWlLk6GJQsqaUBKTNV-12">
          <mxGeometry relative="1" as="geometry" />
        </mxCell>
        <mxCell id="dEN1wEpHh9dn_TEWNNa1-28" value="否" style="edgeLabel;html=1;align=center;verticalAlign=middle;resizable=0;points=[];" vertex="1" connectable="0" parent="dEN1wEpHh9dn_TEWNNa1-18">
          <mxGeometry x="-0.64" y="6" relative="1" as="geometry">
            <mxPoint as="offset" />
          </mxGeometry>
        </mxCell>
        <mxCell id="dEN1wEpHh9dn_TEWNNa1-10" value="是&#39;\0&#39;" style="rhombus;whiteSpace=wrap;html=1;shadow=0;fontFamily=Helvetica;fontSize=12;align=center;strokeWidth=1;spacing=6;spacingTop=-4;" vertex="1" parent="WIyWlLk6GJQsqaUBKTNV-1">
          <mxGeometry x="350" y="310" width="100" height="80" as="geometry" />
        </mxCell>
        <mxCell id="dEN1wEpHh9dn_TEWNNa1-15" value="跳出循环" style="rounded=1;whiteSpace=wrap;html=1;fontSize=12;glass=0;strokeWidth=1;shadow=0;" vertex="1" parent="WIyWlLk6GJQsqaUBKTNV-1">
          <mxGeometry x="510" y="330" width="120" height="40" as="geometry" />
        </mxCell>
        <mxCell id="dEN1wEpHh9dn_TEWNNa1-46" style="edgeStyle=orthogonalEdgeStyle;rounded=0;orthogonalLoop=1;jettySize=auto;html=1;entryX=1;entryY=0.5;entryDx=0;entryDy=0;" edge="1" parent="WIyWlLk6GJQsqaUBKTNV-1" source="dEN1wEpHh9dn_TEWNNa1-20" target="dEN1wEpHh9dn_TEWNNa1-34">
          <mxGeometry relative="1" as="geometry">
            <Array as="points">
              <mxPoint x="670" y="530" />
              <mxPoint x="670" y="730" />
            </Array>
          </mxGeometry>
        </mxCell>
        <mxCell id="dEN1wEpHh9dn_TEWNNa1-20" value="ladjust=1&lt;br&gt;fmt++" style="rounded=1;whiteSpace=wrap;html=1;fontSize=12;glass=0;strokeWidth=1;shadow=0;" vertex="1" parent="WIyWlLk6GJQsqaUBKTNV-1">
          <mxGeometry x="510" y="510" width="120" height="40" as="geometry" />
        </mxCell>
        <mxCell id="dEN1wEpHh9dn_TEWNNa1-25" value="" style="edgeStyle=orthogonalEdgeStyle;rounded=0;orthogonalLoop=1;jettySize=auto;html=1;" edge="1" parent="WIyWlLk6GJQsqaUBKTNV-1" source="dEN1wEpHh9dn_TEWNNa1-22" target="dEN1wEpHh9dn_TEWNNa1-24">
          <mxGeometry relative="1" as="geometry" />
        </mxCell>
        <mxCell id="dEN1wEpHh9dn_TEWNNa1-27" value="是" style="edgeLabel;html=1;align=center;verticalAlign=middle;resizable=0;points=[];" vertex="1" connectable="0" parent="dEN1wEpHh9dn_TEWNNa1-25">
          <mxGeometry x="-0.0111" relative="1" as="geometry">
            <mxPoint as="offset" />
          </mxGeometry>
        </mxCell>
        <mxCell id="dEN1wEpHh9dn_TEWNNa1-35" value="" style="edgeStyle=orthogonalEdgeStyle;rounded=0;orthogonalLoop=1;jettySize=auto;html=1;" edge="1" parent="WIyWlLk6GJQsqaUBKTNV-1" source="dEN1wEpHh9dn_TEWNNa1-22" target="dEN1wEpHh9dn_TEWNNa1-34">
          <mxGeometry relative="1" as="geometry" />
        </mxCell>
        <mxCell id="dEN1wEpHh9dn_TEWNNa1-36" value="否" style="edgeLabel;html=1;align=center;verticalAlign=middle;resizable=0;points=[];" vertex="1" connectable="0" parent="dEN1wEpHh9dn_TEWNNa1-35">
          <mxGeometry x="0.28" y="1" relative="1" as="geometry">
            <mxPoint as="offset" />
          </mxGeometry>
        </mxCell>
        <mxCell id="dEN1wEpHh9dn_TEWNNa1-22" value="*fmt==&#39;0&#39;" style="rhombus;whiteSpace=wrap;html=1;shadow=0;fontFamily=Helvetica;fontSize=12;align=center;strokeWidth=1;spacing=6;spacingTop=-4;" vertex="1" parent="WIyWlLk6GJQsqaUBKTNV-1">
          <mxGeometry x="350" y="600" width="100" height="80" as="geometry" />
        </mxCell>
        <mxCell id="dEN1wEpHh9dn_TEWNNa1-47" style="edgeStyle=orthogonalEdgeStyle;rounded=0;orthogonalLoop=1;jettySize=auto;html=1;entryX=1;entryY=0.5;entryDx=0;entryDy=0;" edge="1" parent="WIyWlLk6GJQsqaUBKTNV-1" source="dEN1wEpHh9dn_TEWNNa1-24" target="dEN1wEpHh9dn_TEWNNa1-34">
          <mxGeometry relative="1" as="geometry">
            <Array as="points">
              <mxPoint x="670" y="640" />
              <mxPoint x="670" y="730" />
            </Array>
          </mxGeometry>
        </mxCell>
        <mxCell id="dEN1wEpHh9dn_TEWNNa1-24" value="padc=‘0’&lt;br&gt;fmt++" style="rounded=1;whiteSpace=wrap;html=1;fontSize=12;glass=0;strokeWidth=1;shadow=0;" vertex="1" parent="WIyWlLk6GJQsqaUBKTNV-1">
          <mxGeometry x="510" y="620" width="120" height="40" as="geometry" />
        </mxCell>
        <mxCell id="dEN1wEpHh9dn_TEWNNa1-40" value="" style="edgeStyle=orthogonalEdgeStyle;rounded=0;orthogonalLoop=1;jettySize=auto;html=1;" edge="1" parent="WIyWlLk6GJQsqaUBKTNV-1" source="dEN1wEpHh9dn_TEWNNa1-34" target="dEN1wEpHh9dn_TEWNNa1-39">
          <mxGeometry relative="1" as="geometry" />
        </mxCell>
        <mxCell id="dEN1wEpHh9dn_TEWNNa1-34" value="读取width&lt;br&gt;fmt++" style="rounded=1;whiteSpace=wrap;html=1;fontSize=12;glass=0;strokeWidth=1;shadow=0;" vertex="1" parent="WIyWlLk6GJQsqaUBKTNV-1">
          <mxGeometry x="340" y="710" width="120" height="40" as="geometry" />
        </mxCell>
        <mxCell id="dEN1wEpHh9dn_TEWNNa1-42" value="" style="edgeStyle=orthogonalEdgeStyle;rounded=0;orthogonalLoop=1;jettySize=auto;html=1;" edge="1" parent="WIyWlLk6GJQsqaUBKTNV-1" source="dEN1wEpHh9dn_TEWNNa1-39" target="dEN1wEpHh9dn_TEWNNa1-41">
          <mxGeometry relative="1" as="geometry" />
        </mxCell>
        <mxCell id="dEN1wEpHh9dn_TEWNNa1-43" value="是" style="edgeLabel;html=1;align=center;verticalAlign=middle;resizable=0;points=[];" vertex="1" connectable="0" parent="dEN1wEpHh9dn_TEWNNa1-42">
          <mxGeometry x="-0.1778" y="1" relative="1" as="geometry">
            <mxPoint as="offset" />
          </mxGeometry>
        </mxCell>
        <mxCell id="dEN1wEpHh9dn_TEWNNa1-49" value="" style="edgeStyle=orthogonalEdgeStyle;rounded=0;orthogonalLoop=1;jettySize=auto;html=1;" edge="1" parent="WIyWlLk6GJQsqaUBKTNV-1" source="dEN1wEpHh9dn_TEWNNa1-39">
          <mxGeometry relative="1" as="geometry">
            <mxPoint x="400" y="890" as="targetPoint" />
          </mxGeometry>
        </mxCell>
        <mxCell id="dEN1wEpHh9dn_TEWNNa1-50" value="否" style="edgeLabel;html=1;align=center;verticalAlign=middle;resizable=0;points=[];" vertex="1" connectable="0" parent="dEN1wEpHh9dn_TEWNNa1-49">
          <mxGeometry x="0.3467" y="1" relative="1" as="geometry">
            <mxPoint x="-1" y="-11" as="offset" />
          </mxGeometry>
        </mxCell>
        <mxCell id="dEN1wEpHh9dn_TEWNNa1-39" value="*fmt==&#39;l&#39;" style="rhombus;whiteSpace=wrap;html=1;shadow=0;fontFamily=Helvetica;fontSize=12;align=center;strokeWidth=1;spacing=6;spacingTop=-4;" vertex="1" parent="WIyWlLk6GJQsqaUBKTNV-1">
          <mxGeometry x="350" y="780" width="100" height="80" as="geometry" />
        </mxCell>
        <mxCell id="dEN1wEpHh9dn_TEWNNa1-54" style="edgeStyle=orthogonalEdgeStyle;rounded=0;orthogonalLoop=1;jettySize=auto;html=1;entryX=1;entryY=0.5;entryDx=0;entryDy=0;" edge="1" parent="WIyWlLk6GJQsqaUBKTNV-1" source="dEN1wEpHh9dn_TEWNNa1-41" target="dEN1wEpHh9dn_TEWNNa1-52">
          <mxGeometry relative="1" as="geometry">
            <Array as="points">
              <mxPoint x="570" y="930" />
            </Array>
          </mxGeometry>
        </mxCell>
        <mxCell id="dEN1wEpHh9dn_TEWNNa1-41" value="long_flag=1&lt;br&gt;fmt++" style="rounded=1;whiteSpace=wrap;html=1;fontSize=12;glass=0;strokeWidth=1;shadow=0;" vertex="1" parent="WIyWlLk6GJQsqaUBKTNV-1">
          <mxGeometry x="510" y="800" width="120" height="40" as="geometry" />
        </mxCell>
        <mxCell id="dEN1wEpHh9dn_TEWNNa1-56" value="" style="edgeStyle=orthogonalEdgeStyle;rounded=0;orthogonalLoop=1;jettySize=auto;html=1;" edge="1" parent="WIyWlLk6GJQsqaUBKTNV-1" source="dEN1wEpHh9dn_TEWNNa1-52" target="dEN1wEpHh9dn_TEWNNa1-55">
          <mxGeometry relative="1" as="geometry" />
        </mxCell>
        <mxCell id="dEN1wEpHh9dn_TEWNNa1-59" value="是" style="edgeLabel;html=1;align=center;verticalAlign=middle;resizable=0;points=[];" vertex="1" connectable="0" parent="dEN1wEpHh9dn_TEWNNa1-56">
          <mxGeometry x="-0.6133" y="1" relative="1" as="geometry">
            <mxPoint as="offset" />
          </mxGeometry>
        </mxCell>
        <mxCell id="dEN1wEpHh9dn_TEWNNa1-58" value="" style="edgeStyle=orthogonalEdgeStyle;rounded=0;orthogonalLoop=1;jettySize=auto;html=1;" edge="1" parent="WIyWlLk6GJQsqaUBKTNV-1" source="dEN1wEpHh9dn_TEWNNa1-52" target="dEN1wEpHh9dn_TEWNNa1-57">
          <mxGeometry relative="1" as="geometry" />
        </mxCell>
        <mxCell id="dEN1wEpHh9dn_TEWNNa1-60" value="否" style="edgeLabel;html=1;align=center;verticalAlign=middle;resizable=0;points=[];" vertex="1" connectable="0" parent="dEN1wEpHh9dn_TEWNNa1-58">
          <mxGeometry x="-0.2333" y="1" relative="1" as="geometry">
            <mxPoint as="offset" />
          </mxGeometry>
        </mxCell>
        <mxCell id="dEN1wEpHh9dn_TEWNNa1-52" value="读取specifier" style="rhombus;whiteSpace=wrap;html=1;shadow=0;fontFamily=Helvetica;fontSize=12;align=center;strokeWidth=1;spacing=6;spacingTop=-4;" vertex="1" parent="WIyWlLk6GJQsqaUBKTNV-1">
          <mxGeometry x="350" y="890" width="100" height="80" as="geometry" />
        </mxCell>
        <mxCell id="dEN1wEpHh9dn_TEWNNa1-64" style="edgeStyle=orthogonalEdgeStyle;rounded=0;orthogonalLoop=1;jettySize=auto;html=1;entryX=0;entryY=0.5;entryDx=0;entryDy=0;" edge="1" parent="WIyWlLk6GJQsqaUBKTNV-1" source="dEN1wEpHh9dn_TEWNNa1-55" target="dEN1wEpHh9dn_TEWNNa1-63">
          <mxGeometry relative="1" as="geometry" />
        </mxCell>
        <mxCell id="dEN1wEpHh9dn_TEWNNa1-55" value="根据specifier做&lt;br&gt;相应替换" style="rounded=1;whiteSpace=wrap;html=1;fontSize=12;glass=0;strokeWidth=1;shadow=0;" vertex="1" parent="WIyWlLk6GJQsqaUBKTNV-1">
          <mxGeometry x="340" y="1000" width="120" height="40" as="geometry" />
        </mxCell>
        <mxCell id="dEN1wEpHh9dn_TEWNNa1-65" style="edgeStyle=orthogonalEdgeStyle;rounded=0;orthogonalLoop=1;jettySize=auto;html=1;entryX=0.5;entryY=1;entryDx=0;entryDy=0;" edge="1" parent="WIyWlLk6GJQsqaUBKTNV-1" source="dEN1wEpHh9dn_TEWNNa1-57" target="dEN1wEpHh9dn_TEWNNa1-63">
          <mxGeometry relative="1" as="geometry" />
        </mxCell>
        <mxCell id="dEN1wEpHh9dn_TEWNNa1-57" value="输出一个‘%’" style="rounded=1;whiteSpace=wrap;html=1;fontSize=12;glass=0;strokeWidth=1;shadow=0;" vertex="1" parent="WIyWlLk6GJQsqaUBKTNV-1">
          <mxGeometry x="190" y="910" width="120" height="40" as="geometry" />
        </mxCell>
        <mxCell id="dEN1wEpHh9dn_TEWNNa1-66" style="edgeStyle=orthogonalEdgeStyle;rounded=0;orthogonalLoop=1;jettySize=auto;html=1;entryX=0;entryY=0.5;entryDx=0;entryDy=0;" edge="1" parent="WIyWlLk6GJQsqaUBKTNV-1" source="dEN1wEpHh9dn_TEWNNa1-63" target="dEN1wEpHh9dn_TEWNNa1-0">
          <mxGeometry relative="1" as="geometry">
            <Array as="points">
              <mxPoint x="250" y="150" />
            </Array>
          </mxGeometry>
        </mxCell>
        <mxCell id="dEN1wEpHh9dn_TEWNNa1-63" value="fmt++" style="rounded=1;whiteSpace=wrap;html=1;fontSize=12;glass=0;strokeWidth=1;shadow=0;" vertex="1" parent="WIyWlLk6GJQsqaUBKTNV-1">
          <mxGeometry x="190" y="810" width="120" height="40" as="geometry" />
        </mxCell>
      </root>
    </mxGraphModel>
  </diagram>
</mxfile>
